{"title":"JUST TEENS PORN AMAZING SEX-SILVERDUST{HKRG} ","uid":6236032,"size":484358172,"categoryP":"porn","categoryS":"movie_clips","magnet":"?xt=urn:btih:f00a7025030a93184e444c8f9f22b6ac90cdb75a&amp;dn=JUST+TEENS+PORN+AMAZING+SEX-SILVERDUST%7BHKRG%7D+&amp;tr=udp%3A%2F%2Ftracker.openbittorrent.com%3A80&amp;tr=udp%3A%2F%2Fopen.demonii.com%3A1337&amp;tr=udp%3A%2F%2Ftracker.coppersurfer.tk%3A6969&amp;tr=udp%3A%2F%2Fexodus.desync.com%3A6969","seeders":0,"leechers":1,"uploader":"dodgerblue","files":6,"time":1299875622,"description":"JUST TEENS PORN AMAZING SEX-SILVERDUST{HKRG}\nFormat                           : Windows Media\nFile size                        : 459 MiB\nDuration                         : 20mn 38s\nOverall bit rate mode            : Variable\nOverall bit rate                 : 3 108 Kbps\nMaximum Overall bit rate         : 6 122 Kbps\nEncoded date                     : UTC 2008-03-28 00:55:11.355\n\nVideo\nID                               : 2\nFormat                           : VC-1\nFormat profile                   : MP@HL\nCodec ID                         : WMV3\nCodec ID/Info                    : Windows Media Video 9\nCodec ID/Hint                    : WMV3\nDescription of the codec         : Windows Media Video 9 - Professional\nDuration                         : 20mn 38s\nBit rate mode                    : Variable\nBit rate                         : 3 000 Kbps\nWidth                            : 1 280 pixels\nHeight                           : 720 pixels\nDisplay aspect ratio             : 1.897\nFrame rate                       : 25.000 fps\nBit depth                        : 8 bits\nScan type                        : Progressive\nCompression mode                 : Lossy\nBits/(Pixel*Frame)               : 0.130\nStream size                      : 443 MiB (97%)\n\nAudio\nID                               : 1\nFormat                           : WMA\nFormat version                   : Version 2\nCodec ID                         : 161\nCodec ID/Info                    : Windows Media Audio\nDescription of the codec         : Windows Media Audio 9.2 -  96 kbps, 44 kHz, stereo 2-pass CBR\nDuration                         : 20mn 38s\nBit rate mode                    : Constant\nBit rate                         : 96.0 Kbps\nChannel(s)                       : 2 channels\nSampling rate                    : 44.1 KHz\nBit depth                        : 16 bits\nStream size                      : 14.2 MiB (3%) &lt;a href=&quot;\nhttp://img1.immage.de/11039ddimage3699593.jpg&quot; rel=&quot;nofollow&quot; target=&quot;_NEW&quot;&gt;\nhttp://img1.immage.de/11039ddimage3699593.jpg&lt;/a&gt; &lt;a href=&quot;\nhttp://img1.immage.de/110324a1236image3705687.jpg&quot; rel=&quot;nofollow&quot; target=&quot;_NEW&quot;&gt;\nhttp://img1.immage.de/110324a1236image3705687.jpg&lt;/a&gt;\n[img]http://img1.immage.de/11039ddimage3699593.jpg[/img]\n\n\n[img]http://img1.immage.de/110324a1236image3705687.jpg[/img]\n &lt;a href=&quot;\nhttp://www.leetleech.org/images/04532010743940157897.jpg&quot; rel=&quot;nofollow&quot; target=&quot;_NEW&quot;&gt;\nhttp://www.leetleech.org/images/04532010743940157897.jpg&lt;/a&gt;\n    &lt;a href=&quot;\thttp://www.leetleech.org/images/76095717912880926275.png&quot; rel=&quot;nofollow&quot; target=&quot;_NEW&quot;&gt;\thttp://www.leetleech.org/images/76095717912880926275.png&lt;/a&gt;\n    &lt;a href=&quot;\thttp://www.leetleech.org/images/69650992834664187757.png&quot; rel=&quot;nofollow&quot; target=&quot;_NEW&quot;&gt;\thttp://www.leetleech.org/images/69650992834664187757.png&lt;/a&gt;\n    &lt;a href=&quot;\thttp://www.leetleech.org/images/12372358118747015178.png&quot; rel=&quot;nofollow&quot; target=&quot;_NEW&quot;&gt;\thttp://www.leetleech.org/images/12372358118747015178.png&lt;/a&gt;\n[URL=http://www.leetleech.org/][IMG]http://www.leetleech.org/images/04532010743940157897.jpg[/IMG][/URL]\n        [URL=http://www.leetleech.org/][IMG]http://www.leetleech.org/images/76095717912880926275.png[/IMG][/URL]\n        [URL=http://www.leetleech.org/][IMG]http://www.leetleech.org/images/69650992834664187757.png[/IMG][/URL]\n        [URL=http://www.leetleech.org/][IMG]http://www.leetleech.org/images/12372358118747015178.png[/IMG][/URL]\nNJOI","torrent":{"xt":"urn:btih:f00a7025030a93184e444c8f9f22b6ac90cdb75a","amp;dn":"JUST+TEENS+PORN+AMAZING+SEX-SILVERDUST%7BHKRG%7D+","amp;tr":["udp%3A%2F%2Ftracker.openbittorrent.com%3A80","udp%3A%2F%2Fopen.demonii.com%3A1337","udp%3A%2F%2Ftracker.coppersurfer.tk%3A6969","udp%3A%2F%2Fexodus.desync.com%3A6969"],"infoHash":"f00a7025030a93184e444c8f9f22b6ac90cdb75a","infoHashBuffer":{"type":"Buffer","data":[240,10,112,37,3,10,147,24,78,68,76,143,159,34,182,172,144,205,183,90]},"announce":[],"urlList":[]}}